# xmcd CD database file
#
# Track frame offsets:
#       150
#       15955
#       26718
#       39337
#       49537
#       62135
#
# Disc length: 1046 seconds
#
# Revision: 0
# Processed by: cddbd v1.5.2PL0 Copyright (c) Steve Scherf et al.
# Submitted via: jack 3.1.1
#
DISCID=3e041406
DTITLE=Questionmark Blues - Questionmark Blues
DYEAR=2019
DGENRE=Blues
TTITLE0=Stormy Monday
TTITLE1=The thrill is gone
TTITLE2=As tears go by
TTITLE3=I'll take care of you
TTITLE4=Window of my eyes
TTITLE5=Need your love so bad
EXTD=
EXTT0=
EXTT1=
EXTT2=
EXTT3=
EXTT4=
EXTT5=
PLAYORDER=
